<svg version="1.1" xmlns="http://www.w3.org/2000/svg" xmlns:xlink="http://www.w3.org/1999/xlink" x="0px" y="0px" viewBox="0 0 90.6 76.8" style="fill: none; " xml:space="preserve">
                <style type="text/css">
                    .st0 {
                        display: none;
                    }
                    
                    .st1 {
                        fill: #D4D1CD;
                    }
                    
                    .st2 {
                        fill: #EA8215;
                    }
                </style>
                <g id="Layer_1" class="st0">

                    <image style="display:inline;overflow:visible;" width="803" height="221" xlink:href="mslogo.png" transform="matrix(0.629 0 0 0.629 -79.6487 -8.4106)">
                    </image>
                </g>
                <g id="Layer_2">
                    <path class="st1" d="M44.6,9.9c0,0-2.6,5.1-9.6,6.7c-1.1,0.3-2.3,0.4-3.5,0.4c-0.9,0-2.2,0-3.3,0c-1.5,0-3,0.2-4.4,0.7
c-1.9,0.6-4.4,1.7-7,3.6c-3.8,2.8-6.5,7-7.5,11.6c-0.1,0.6-0.6,5.4-0.6,5.8c0,0,0,1.5,0.2,4.9c0.1,1.9,0.4,3.7,1.1,5.4
c1.3,3.5,4.2,8.9,10.8,11.3c0.9,0.3,1.8,0.6,2.8,0.8c3.5,0.7,11.7,1.9,18.1-1.1v-9.3c0,0-4.7,2.9-12.2,2.1c-2-0.2-5.7-1.6-7.3-6.1
c-0.8-2.2-1.5-4.3-1.5-6.6c0-2.4,0.1-5.7,1.2-7.6c1.5-2.7,3.2-5.3,10.3-6.4c0.7-0.1,1.5-0.2,2.2-0.3c1.6-0.3,4.6-1.4,5.8-3.1
c1.4-2,3-6.1,3.5-7.4C43.9,15.3,45.4,11,44.6,9.9z" />
                    <path class="st1" d="M64.3,3.5c0,0-8.2,1-10.9,7.9c-1,2.6-1,5.5,0.5,7.9c0.8,1.4,2.2,2.8,4.6,3.7c6.4,2.3,20.3,6.1,22.6,15.5
c0,0,0,0,0,0c0.1,0.5,2.4,11.5-3.3,17.5c-2.3,2.4-5.2,5.6-12.1,5.9c-2.5,0.1-7.6,0.3-10.1,0c-1.7-0.2-4.7-1.1-6.4-2.1
c-0.3-0.1-0.4-0.4-0.4-0.7v-6.6c0-0.6,0.6-1,1.1-0.8c3.2,1.1,12.8,3.9,18.2,0.3c0,0,6.1-3.3,4.1-9.8c0,0-0.8-3.5-6.9-6.4
c0,0-11.1-5.1-12.9-7.2c0,0-7.5-5.2-4.9-14.2c0,0,1.7-6.9,8.4-10.2c1.8-0.9,3.7-1.2,5.7-1.1L64.3,3.5z" />
                    <polygon class="st2" points="29.4,66.9 29.3,73.4 64.3,73.4 64.3,66.9 " />
                </g>
            </svg>